<svg xmlns="http://www.w3.org/2000/svg" viewBox="-6 -8 132 136" width="132" height="136">
<defs>
<linearGradient id="g" x1="0" y1="0" x2="0" y2="1"><stop offset="0" stop-color="#fff6dc"/><stop offset=".28" stop-color="#e2c27e"/><stop offset=".55" stop-color="#9c7533"/><stop offset=".8" stop-color="#d9b56a"/><stop offset="1" stop-color="#6e5020"/></linearGradient>
<linearGradient id="gi" x1="0" y1="0" x2="0" y2="1"><stop offset="0" stop-color="#5a4316"/><stop offset="1" stop-color="#f3dfa8"/></linearGradient>
<linearGradient id="f" x1="0" y1="0" x2="0" y2="1"><stop offset="0" stop-color="#dcebff"/><stop offset=".45" stop-color="#5a9cff"/><stop offset="1" stop-color="#1c3f9e"/></linearGradient>
<radialGradient id="h" cx=".5" cy=".38" r=".62"><stop offset="0" stop-color="#ffffff" stop-opacity=".55"/><stop offset=".5" stop-color="#ffffff" stop-opacity="0"/></radialGradient>
<linearGradient id="gl" x1="0" y1="0" x2="0" y2="1"><stop offset="0" stop-color="#ffffff" stop-opacity=".55"/><stop offset="1" stop-color="#ffffff" stop-opacity="0"/></linearGradient>
<linearGradient id="t" x1="0" y1="0" x2="0" y2="1"><stop offset="0" stop-color="#ffffff"/><stop offset=".55" stop-color="#fff8ea"/><stop offset="1" stop-color="#f1dcb0"/></linearGradient>
<filter id="s" x="-20%" y="-20%" width="140%" height="140%"><feDropShadow dx="0" dy="1.6" stdDeviation="1.4" flood-color="#000" flood-opacity=".55"/></filter>
<filter id="o" x="-30%" y="-30%" width="160%" height="160%"><feGaussianBlur stdDeviation="4"/></filter>
</defs>
<path d="M60.00,4.00L108.50,32.00L108.50,88.00L60.00,116.00L11.50,88.00L11.50,32.00Z" fill="#7ab8ff" opacity=".35" filter="url(#o)"/>

<path d="M60.00,6.00L106.77,33.00L106.77,87.00L60.00,114.00L13.23,87.00L13.23,33.00Z" fill="url(#g)" stroke="#4a3812" stroke-width="1.2" stroke-linejoin="round"/>
<path d="M60.00,12.50L101.14,36.25L101.14,83.75L60.00,107.50L18.86,83.75L18.86,36.25Z" fill="url(#gi)"/>
<path d="M60.00,14.10L99.75,37.05L99.75,82.95L60.00,105.90L20.25,82.95L20.25,37.05Z" fill="#0a1426"/>
<path d="M60.00,17.00L97.24,38.50L97.24,81.50L60.00,103.00L22.76,81.50L22.76,38.50Z" fill="url(#f)"/>
<path d="M60.00,60.00L22.76,38.50L60.00,17.00L97.24,38.50Z" fill="#ffffff" opacity=".14"/>
<path d="M60.00,60.00L97.24,81.50L60.00,103.00L22.76,81.50Z" fill="#000000" opacity=".16"/>
<g stroke="#ffffff" stroke-opacity=".16" stroke-width=".8"><path d="M60,60L60.00,17.00"/><path d="M60,60L97.24,38.50"/><path d="M60,60L97.24,81.50"/><path d="M60,60L60.00,103.00"/><path d="M60,60L22.76,81.50"/><path d="M60,60L22.76,38.50"/></g>
<path d="M60.00,17.00L97.24,38.50L97.24,81.50L60.00,103.00L22.76,81.50L22.76,38.50Z" fill="url(#h)"/>
<path d="M22.76,38.50L60.00,17.00L97.24,38.50L97.24,56.00Q60,66.00 22.76,56.00Z" fill="url(#gl)" opacity=".7"/>
<path d="M60.00,17.00L97.24,38.50L97.24,81.50L60.00,103.00L22.76,81.50L22.76,38.50Z" fill="none" stroke="#dcebff" stroke-opacity=".75" stroke-width="1.4" stroke-linejoin="round"/>
<g fill="url(#t)" stroke="#1c3f9e" stroke-width="2.2" stroke-linejoin="round" paint-order="stroke" filter="url(#s)"><path d="M49.05714285714285 40.0H60.199999999999996Q64.42857142857142 40.0 67.85714285714285 40.91428571428571Q71.28571428571428 41.82857142857143 73.34285714285714 43.971428571428575Q75.4 46.114285714285714 75.4 49.885714285714286Q75.4 52.51428571428572 74.34285714285714 54.34285714285714Q73.28571428571428 56.17142857142857 71.65714285714284 57.14285714285714Q70.02857142857142 58.114285714285714 68.14285714285714 58.22857142857143Q71.0 58.400000000000006 73.31428571428572 59.714285714285715Q75.62857142857143 61.028571428571425 77.02857142857142 63.31428571428571Q78.42857142857142 65.6 78.42857142857142 68.68571428571428Q78.42857142857142 72.51428571428572 76.25714285714285 75.02857142857144Q74.08571428571429 77.54285714285714 70.25714285714285 78.77142857142857Q66.42857142857142 80.0 61.39999999999999 80.0H55.97142857142857Q55.97142857142857 80.0 56.0 79.31428571428572Q56.028571428571425 78.62857142857143 56.028571428571425 77.94285714285715Q56.028571428571425 77.25714285714285 56.028571428571425 77.25714285714285H58.199999999999996Q60.599999999999994 77.25714285714285 62.54285714285714 76.31428571428572Q64.48571428571428 75.37142857142857 65.62857142857143 73.31428571428572Q66.77142857142857 71.25714285714285 66.77142857142857 67.94285714285715Q66.77142857142857 65.65714285714286 66.17142857142858 63.94285714285714Q65.57142857142857 62.22857142857143 64.45714285714286 61.08571428571429Q63.34285714285714 59.94285714285714 61.82857142857142 59.400000000000006Q60.31428571428571 58.85714285714286 58.42857142857142 58.85714285714286V58.34285714285714Q59.8 58.34285714285714 60.942857142857136 57.885714285714286Q62.08571428571428 57.42857142857143 62.91428571428571 56.48571428571429Q63.74285714285714 55.542857142857144 64.2 54.08571428571429Q64.65714285714286 52.62857142857143 64.65714285714286 50.68571428571428Q64.65714285714286 47.714285714285715 63.77142857142857 45.94285714285714Q62.885714285714286 44.17142857142857 61.31428571428572 43.4Q59.74285714285714 42.628571428571426 57.68571428571428 42.628571428571426H49.628571428571426Q49.628571428571426 42.57142857142857 49.48571428571428 41.94285714285714Q49.34285714285714 41.31428571428572 49.199999999999996 40.65714285714286Q49.05714285714285 40.0 49.05714285714285 40.0ZM56.48571428571428 40.0V80.0H46.37142857142857V40.0ZM46.54285714285714 75.82857142857142V80.0H41.97142857142857V79.42857142857143Q42.08571428571428 79.42857142857143 42.37142857142857 79.42857142857143Q42.65714285714285 79.42857142857143 42.71428571428571 79.42857142857143Q44.199999999999996 79.42857142857143 45.25714285714285 78.37142857142857Q46.31428571428571 77.31428571428572 46.37142857142857 75.82857142857142ZM46.54285714285714 44.17142857142857H46.37142857142857Q46.31428571428571 42.68571428571429 45.25714285714285 41.62857142857143Q44.199999999999996 40.57142857142857 42.71428571428571 40.57142857142857Q42.65714285714285 40.57142857142857 42.37142857142857 40.57142857142857Q42.08571428571428 40.57142857142857 41.97142857142857 40.57142857142857V40.0H46.54285714285714Z"/></g>
</svg>